<svg id="visual" viewBox="0 0 900 600" width="900" height="600" xmlns="http://www.w3.org/2000/svg" xmlns:xlink="http://www.w3.org/1999/xlink" version="1.1"><rect x="0" y="0" width="900" height="600" fill="#E2DCCD"></rect><defs><linearGradient id="grad1_0" x1="33.3%" y1="0%" x2="100%" y2="100%"><stop offset="20%" stop-color="#888277" stop-opacity="1"></stop><stop offset="80%" stop-color="#888277" stop-opacity="1"></stop></linearGradient></defs><defs><linearGradient id="grad1_1" x1="33.3%" y1="0%" x2="100%" y2="100%"><stop offset="20%" stop-color="#888277" stop-opacity="1"></stop><stop offset="80%" stop-color="#b4aea1" stop-opacity="1"></stop></linearGradient></defs><defs><linearGradient id="grad1_2" x1="33.3%" y1="0%" x2="100%" y2="100%"><stop offset="20%" stop-color="#e2dccd" stop-opacity="1"></stop><stop offset="80%" stop-color="#b4aea1" stop-opacity="1"></stop></linearGradient></defs><defs><linearGradient id="grad2_0" x1="0%" y1="0%" x2="66.7%" y2="100%"><stop offset="20%" stop-color="#888277" stop-opacity="1"></stop><stop offset="80%" stop-color="#888277" stop-opacity="1"></stop></linearGradient></defs><defs><linearGradient id="grad2_1" x1="0%" y1="0%" x2="66.7%" y2="100%"><stop offset="20%" stop-color="#b4aea1" stop-opacity="1"></stop><stop offset="80%" stop-color="#888277" stop-opacity="1"></stop></linearGradient></defs><defs><linearGradient id="grad2_2" x1="0%" y1="0%" x2="66.7%" y2="100%"><stop offset="20%" stop-color="#b4aea1" stop-opacity="1"></stop><stop offset="80%" stop-color="#e2dccd" stop-opacity="1"></stop></linearGradient></defs><g transform="translate(900, 0)"><path d="M0 513.8C-75 475.5 -150 437.3 -230.5 399.2C-311 361.2 -396.8 323.4 -445 256.9C-493.1 190.4 -503.4 95.2 -513.8 0L0 0Z" fill="#cbc5b7"></path><path d="M0 342.5C-50 317 -100 291.5 -153.7 266.2C-207.3 240.8 -264.6 215.6 -296.6 171.3C-328.7 126.9 -335.6 63.5 -342.5 0L0 0Z" fill="#9e988c"></path><path d="M0 171.3C-25 158.5 -50 145.8 -76.8 133.1C-103.7 120.4 -132.3 107.8 -148.3 85.6C-164.4 63.5 -167.8 31.7 -171.3 0L0 0Z" fill="#888277"></path></g><g transform="translate(0, 600)"><path d="M0 -513.8C102.8 -507.8 205.6 -501.9 256.9 -445C308.2 -388 307.9 -280.2 342.1 -197.5C376.3 -114.8 445 -57.4 513.8 0L0 0Z" fill="#cbc5b7"></path><path d="M0 -342.5C68.5 -338.6 137.1 -334.6 171.3 -296.6C205.4 -258.7 205.2 -186.8 228.1 -131.7C250.9 -76.6 296.7 -38.3 342.5 0L0 0Z" fill="#9e988c"></path><path d="M0 -171.3C34.3 -169.3 68.5 -167.3 85.6 -148.3C102.7 -129.3 102.6 -93.4 114 -65.8C125.4 -38.3 148.3 -19.1 171.3 0L0 0Z" fill="#888277"></path></g></svg>