<svg id="visual" viewBox="0 0 900 600" width="900" height="600" xmlns="http://www.w3.org/2000/svg" xmlns:xlink="http://www.w3.org/1999/xlink" version="1.1"><rect x="0" y="0" width="900" height="600" fill="#E2DCCD"></rect><defs><linearGradient id="grad1_0" x1="33.3%" y1="0%" x2="100%" y2="100%"><stop offset="20%" stop-color="#888277" stop-opacity="1"></stop><stop offset="80%" stop-color="#888277" stop-opacity="1"></stop></linearGradient></defs><defs><linearGradient id="grad1_1" x1="33.3%" y1="0%" x2="100%" y2="100%"><stop offset="20%" stop-color="#888277" stop-opacity="1"></stop><stop offset="80%" stop-color="#b4aea1" stop-opacity="1"></stop></linearGradient></defs><defs><linearGradient id="grad1_2" x1="33.3%" y1="0%" x2="100%" y2="100%"><stop offset="20%" stop-color="#e2dccd" stop-opacity="1"></stop><stop offset="80%" stop-color="#b4aea1" stop-opacity="1"></stop></linearGradient></defs><defs><linearGradient id="grad2_0" x1="0%" y1="0%" x2="66.7%" y2="100%"><stop offset="20%" stop-color="#888277" stop-opacity="1"></stop><stop offset="80%" stop-color="#888277" stop-opacity="1"></stop></linearGradient></defs><defs><linearGradient id="grad2_1" x1="0%" y1="0%" x2="66.7%" y2="100%"><stop offset="20%" stop-color="#b4aea1" stop-opacity="1"></stop><stop offset="80%" stop-color="#888277" stop-opacity="1"></stop></linearGradient></defs><defs><linearGradient id="grad2_2" x1="0%" y1="0%" x2="66.7%" y2="100%"><stop offset="20%" stop-color="#b4aea1" stop-opacity="1"></stop><stop offset="80%" stop-color="#e2dccd" stop-opacity="1"></stop></linearGradient></defs><g transform="translate(900, 0)"><path d="M0 459.7C-19.9 457.2 -39.9 454.7 -52.4 431.8C-65 408.9 -70.2 365.5 -90.7 368C-111.2 370.4 -147 418.7 -148.6 391.8C-150.2 364.9 -117.6 262.9 -135.7 258.6C-153.8 254.2 -222.7 347.6 -252.8 366.2C-282.9 384.8 -274.1 328.7 -237.4 268C-200.7 207.3 -135.9 142 -173.7 153.8C-211.4 165.7 -351.7 254.6 -367.9 253.9C-384.1 253.3 -276.2 163.1 -237.3 124.5C-198.4 86 -228.4 99.1 -284.2 107.8C-340 116.5 -421.6 120.8 -446.3 110C-471.1 99.2 -439.1 73.3 -431.8 52.4C-424.6 31.6 -442.1 15.8 -459.7 0L0 0Z" fill="#cbc5b7"></path><path d="M0 306.5C-13.3 304.8 -26.6 303.2 -35 287.9C-43.3 272.6 -46.8 243.7 -60.5 245.3C-74.1 246.9 -98 279.1 -99.1 261.2C-100.1 243.3 -78.4 175.2 -90.5 172.4C-102.6 169.5 -148.5 231.7 -168.5 244.2C-188.6 256.6 -182.8 219.1 -158.3 178.6C-133.8 138.2 -90.6 94.7 -115.8 102.6C-140.9 110.4 -234.4 169.7 -245.2 169.3C-256 168.9 -184.1 108.7 -158.2 83C-132.3 57.3 -152.3 66.1 -189.5 71.9C-226.7 77.7 -281.1 80.5 -297.6 73.3C-314.1 66.1 -292.7 48.9 -287.9 35C-283.1 21.1 -294.8 10.5 -306.5 0L0 0Z" fill="#9e988c"></path><path d="M0 153.2C-6.6 152.4 -13.3 151.6 -17.5 143.9C-21.7 136.3 -23.4 121.8 -30.2 122.7C-37.1 123.5 -49 139.6 -49.5 130.6C-50.1 121.6 -39.2 87.6 -45.2 86.2C-51.3 84.7 -74.2 115.9 -84.3 122.1C-94.3 128.3 -91.4 109.6 -79.1 89.3C-66.9 69.1 -45.3 47.3 -57.9 51.3C-70.5 55.2 -117.2 84.9 -122.6 84.6C-128 84.4 -92.1 54.4 -79.1 41.5C-66.1 28.7 -76.1 33 -94.7 35.9C-113.3 38.8 -140.5 40.3 -148.8 36.7C-157 33.1 -146.4 24.4 -143.9 17.5C-141.5 10.5 -147.4 5.3 -153.2 0L0 0Z" fill="#888277"></path></g><g transform="translate(0, 600)"><path d="M0 -459.7C16.2 -410.1 32.4 -360.5 38.3 -315.7C44.3 -270.8 40 -230.7 65.1 -264.1C90.1 -297.4 144.5 -404.3 148.6 -391.8C152.7 -379.3 106.5 -247.5 127.8 -243.5C149.1 -239.5 237.8 -363.2 261.1 -378.3C284.4 -393.5 242.3 -300.1 218.2 -246.3C194 -192.4 187.9 -178.1 186.4 -165.1C184.9 -152.2 188.1 -140.6 195 -134.6C202 -128.7 212.7 -128.4 263.9 -138.5C315.1 -148.6 406.8 -169.1 411.4 -156C416 -143 333.6 -96.3 286.4 -70.6C239.2 -44.9 227.3 -40.1 262.1 -31.8C296.8 -23.5 378.3 -11.8 459.7 0L0 0Z" fill="#cbc5b7"></path><path d="M0 -306.5C10.8 -273.4 21.6 -240.3 25.6 -210.5C29.5 -180.6 26.7 -153.8 43.4 -176.1C60.1 -198.3 96.3 -269.5 99.1 -261.2C101.8 -252.9 71 -165 85.2 -162.3C99.4 -159.6 158.6 -242.1 174.1 -252.2C189.6 -262.3 161.5 -200.1 145.4 -164.2C129.3 -128.3 125.2 -118.7 124.3 -110.1C123.3 -101.4 125.4 -93.7 130 -89.8C134.7 -85.8 141.8 -85.6 175.9 -92.3C210 -99.1 271.2 -112.7 274.3 -104C277.4 -95.3 222.4 -64.2 191 -47.1C159.5 -29.9 151.5 -26.7 174.7 -21.2C197.9 -15.7 252.2 -7.8 306.5 0L0 0Z" fill="#9e988c"></path><path d="M0 -153.2C5.4 -136.7 10.8 -120.2 12.8 -105.2C14.8 -90.3 13.3 -76.9 21.7 -88C30 -99.1 48.2 -134.8 49.5 -130.6C50.9 -126.4 35.5 -82.5 42.6 -81.2C49.7 -79.8 79.3 -121.1 87 -126.1C94.8 -131.2 80.8 -100 72.7 -82.1C64.7 -64.1 62.6 -59.4 62.1 -55C61.6 -50.7 62.7 -46.9 65 -44.9C67.3 -42.9 70.9 -42.8 88 -46.2C105 -49.5 135.6 -56.4 137.1 -52C138.7 -47.7 111.2 -32.1 95.5 -23.5C79.7 -15 75.8 -13.4 87.4 -10.6C98.9 -7.8 126.1 -3.9 153.2 0L0 0Z" fill="#888277"></path></g></svg>