<svg id="b467bed4-ba28-4616-8740-a2146f632a86" data-name="Layer 1" xmlns="http://www.w3.org/2000/svg" width="292" height="390" viewBox="0 0 272.51 339.93">
    <defs>
        <style>
        path {
            stroke: #ffffff;
            fill: none;
            stroke-width: 1px;
            stroke-linejoin: round;
            stroke-linecap: round;
            fill: none;
            stroke-width: 2px
        }
        </style>
    </defs>
    <title>one</title>
    <g>
        <path d="M75.1,302.67c.59-2.34,1.22-4.67,1.75-7a103.56,103.56,0,0,1,6.06-19.37c1.78-4,4.56-7.08,7.58-10a2.15,2.15,0,0,1,2.2-.68c10,1.18,17.74,5.23,22.45,14.67,5.51,11,8.73,22.73,10.83,34.75a200.4,200.4,0,0,1,2.62,22.39c.44,7.44,0,14.93.1,22.39.09,10.61-2.87,20.44-6.36,30.39-2.86,8.13-8.77,12.11-15.7,15.07-2.49,1.07-6.22.09-9-.91-1-.35-1.09-3.54-1.38-5.46-.41-2.77-.62-5.56-.9-8.34s-1.46-5.15-4.4-6.15-3.84-3.11-3.56-6.15c.46-5,.63-10,.93-14.93" transform="translate(-5.52 -162.25)" />
        <path d="M209.93,216.15c1,.15,2.65-.06,3,.5,1.43,2.48,3.37.3,4.94.82.44-1.91,1.58-4,1.17-5.68a21.08,21.08,0,0,1,.08-11.47c.31-1-.17-2.34-.45-3.48a2.56,2.56,0,0,0-1.66,0c-1.45.71-1.44,2.1-1.34,3.48a2.16,2.16,0,0,0,0,.44c.72,2.75,2.31,6.45-1,7.54-1.74.57-5.17-1.66-7-4.41-2.92-4.39-3.45-9.13-3.42-14.11,0-.15-.06-.34,0-.44a23,23,0,0,0,2.08-3c-4.91-4.76-4.72-13.11-11.71-16.44-2-1-3.75-.71-5.76-.41-4.24.62-8.53,1.3-12.73-.39" transform="translate(-5.52 -162.25)" />
        <path d="M54.9,199.9a41.12,41.12,0,0,1,1.75,10.54A2.19,2.19,0,0,0,59.28,213c2.33-.26,3.56,1.38,4.28,2.76,1,2-2.59,1.17-2.52,3,7.1,1.64,9.81-.08,13.24-7.43,2.33-5,2-9.6,0-14.56A23.11,23.11,0,0,1,72.6,188c.05-3.58-2.17-5.23-4.57-6.5a8.89,8.89,0,0,1-5.13-8.43c.05-4.43-2.49-7.09-5.42-9.6a3.37,3.37,0,0,0-2.47,0c-.59,2.75-2.56,5.42-.19,8.38.86,1.07,2.74,2,1.1,4.43s-3,.76-4.53.78" transform="translate(-5.52 -162.25)" />
        <path d="M211.69,215.27c.49-.81,2.33-1.34.85-2.6-1.82-1.56-2.65.79-3.9,1.35s-1.35,2.14,0,2.48c3.77,1-.41,2.51.41,3.6-2.54,1.32-3.78,4.46-7,4.9-.8.11-2.13,1.17-2.08,1.68a2.36,2.36,0,0,0,2.51,2.21,13.32,13.32,0,0,1,7.92,2.6c.3.21,1.23-.05,1.25,0,1.05,5.07,4,2.9,6.64,1.75.42-.18.88-.3,1.31-.44a7.87,7.87,0,0,1,0,1.75c-.93,3.68-3.7,5.72-7,6.48A58.39,58.39,0,0,1,202,242a7.57,7.57,0,0,1-3.49-.86c-10-5-20.57-9.1-27.69-18.41" transform="translate(-5.52 -162.25)" />
        <path d="M169.09,478.34c5.71-6,11.79-11.7,17-18.09,5-6.11,2.74-11.27-5.18-12.53a13.44,13.44,0,0,0-9.75,1.91c-8.92,5.61-18.36,10.38-27.55,15.56-3.44,1.93-6.75,4.08-10.12,6.13" transform="translate(-5.52 -162.25)" />
        <path d="M76.86,326.39c.31,15.42-2.62,30.5-4.77,45.68-1.08,7.56-1.53,15.22-2.26,22.83" transform="translate(-5.52 -162.25)" />
        <path d="M103.21,432.67c-5,6.15-10,12.24-14.89,18.48-1.46,1.86-4.27,4.57-2.5,6.37,3.59,3.63.15,5.29-1.07,7.64-2,3.84-4,7.69-6.17,11.41-2,3.47-4.23,3.66-7,.89-1.84-1.84-3.65-3.32-6.57-3.66s-1.11-2.49-.43-3.79A108.26,108.26,0,0,0,74.2,445a90.28,90.28,0,0,0,1.71-9.23c.13-1-.21-2.62-.86-3-4-2.12-1.71-4.66-.31-6.62a24.07,24.07,0,0,0,4.31-10.6" transform="translate(-5.52 -162.25)" />
        <path d="M264.83,371.18c-2.93-.88-5.8-2.17-8.79-2.54-5.48-.7-10.29,1.63-14.94,4.27-.9.51-2.36,1.17-3,.8-1.53-.9.08-2,.38-3,1-3.24,2-6.46,3.08-9.66.67-2,1.13-4-.94-5.2-1.74-1-3.68-.77-5.7.29-3.82,2-5.35,5.82-8.75,8.92,0-4.27.11-8.54,0-12.8-.09-2.79-.54-5.57-.84-8.35" transform="translate(-5.52 -162.25)" />
        <path d="M175.68,170.47c-.74,3.08-1.25,6.22-2.24,9.21-3.91,11.9-.82,23.32,2.34,34.68.59,2.11,2.59,3.8,3.82,5.76a12.28,12.28,0,0,1,.91,2.62c-1,.29-2.06.55-3.08.88-1.54.5-2.74-2.12-4.39-.44" transform="translate(-5.52 -162.25)" />
        <path d="M230.57,440.57c4.28-5,9.58-7.62,16.25-7,3.2.29,4.92,0,3.19-4-1.29-3-1.3-6.5-2.46-9.56-.39-1,.88-3.24-1.15-3-1.55.18-4,1.37-4.23,2.54-1.25,5.09-4.92,8.86-6.77,13.56-.53,1.35-1.17,2.64-1.75,4" transform="translate(-5.52 -162.25)" />
        <path d="M79.93,305.74c2.15-1.18,2.21.23,2.2,1.76,0,3.37-.12,6.74,0,10.1.13,2.9-.19,5.52,1.87,8.54A24,24,0,0,1,88,339.55c-.14,4.56,3.09,3.41,4.79,4.24,1.87.91,2.24.39,1.66,1.91-1.52,4-1.41,8.17-2,12.27-.36,2.59-.4,6.06-3.26,7.94" transform="translate(-5.52 -162.25)" />
        <path d="M70.71,356.25c-1.46,10.39-2.9,20.79-4.4,31.18-.81,5.57-1.73,11.13-2.66,16.69-.07.47-.55.88-.85,1.32" transform="translate(-5.52 -162.25)" />
        <path d="M48.75,263.14c-1.17,1.77-2.26.82-3.54,0s-1.61-3.3-4.29-2.14a69.78,69.78,0,0,1,6.25,12.57c1.28,3.15,4.23,5.62,6.4,8.43.57.74,2.23,1.19.89,2.62-3.31,3.53-.7,7.36-.32,11,.33,3.28,1.7,6.44,2.49,9.68.36,1.52.76,3,2.65,2.57,1.67-.38.68-2,.86-3,.65-3.65,1.72-7.33,1.64-11s-1.17-7.36-2.08-11a34.52,34.52,0,0,0-9.17-16.27,10.89,10.89,0,0,1-1.34-2.18" transform="translate(-5.52 -162.25)" />
        <path d="M265.27,291.69c-4.74-1.7-9.34,1.14-14,.43-1.34-.2-2.91.64-4.11-1.09a12.6,12.6,0,0,1,1.91-.64c5.27-.91,10.59-1.58,15.79-2.76,1.74-.4,3,.27,4.41.55-.58,1-1.14,2.06-1.76,3.07-2.49,4-6.53,4-10.53,3.93-1,0-2.05-.35-3.08-.4-1.46-.07-4-.42-4.2.05-.74,2-1.46,4.52-.91,6.48.87,3.09,2.77,5.9,4.23,8.83" transform="translate(-5.52 -162.25)" />
        <path d="M262.2,254.8c-.86-3.55-3.26-4.32-6.6-4a58.35,58.35,0,0,1-8.77,0c-1.75-.1-3.9.57-3.72,1.76.21,1.37-.3,3.47,1.91,4.53s4.5,2.52,4,5.61c-.36,2.14,1.56,1.12,2.29,1.67,1.09.81,1.14-.38,1.27-1.22.3-1.85,1-2.49,2.64-.91,1.34,1.3,4.76.51,3.93,4l7.47,1.31" transform="translate(-5.52 -162.25)" />
        <path d="M115.07,212.64c-2.2,1-4.34,2.19-6.61,3a20.87,20.87,0,0,1-4.81.91c-1.59.18-2.71.27-1.86-2.21,1.36-3.94-1-6.5-5.17-6.59-2.62-.05-2.52,2-3,3.56s.69,3.18-1.44,4.77c-.14-1.35-.33-2.41-.35-3.47a29.87,29.87,0,0,1,3.06-14" transform="translate(-5.52 -162.25)" />
        <path d="M80.81,415.54a51.28,51.28,0,0,0,4,4.8c2.11,2,3.58,5.14,7.44,4.52.65-.11,1.49,1,2.24,1.58-.88,1.31-3.77,1.09-3,3.08.42,1,2.76,1.76,4.21,1.72,3.07-.07,6.25,1.95,9.23-.33" transform="translate(-5.52 -162.25)" />
        <path d="M74.66,406.76c2.41,3.19,2.25,5.9-.3,9.32-2.81,3.79-4.22,8.6-6.84,12.56-1.55,2.33-4.28,3.88-6.47,5.79" transform="translate(-5.52 -162.25)" />
        <path d="M190.17,189.36a2.85,2.85,0,0,0-4.4,0c-.38.35-1,.5-1.29.9-1.25,1.88-5.43,1.72-4.62,4.3s3.57-.09,5.48-.07c3.07,0,6.15,2.19,9.31.3-.93-1.56-2-1.3-3.16-.59" transform="translate(-5.52 -162.25)" />
        <path d="M32.5,279.39c.15-.29.4-.85.42-.84,3.83,1.57,7.65,3.15,11.42,4.84.47.21,1.59.82.45,1.71-.41.32-1,.93-1.29.83-3.76-1.39-8.47-.56-11-4.77-.82-1.36-1.63-2.79-3.49-3.12-.81-.14-2-.47-.87-1.71.35-.38,1.1-.95,1.27-.83,1,.63,1.47,1.51.47,2.57" transform="translate(-5.52 -162.25)" />
        <path d="M73.78,382.16q-1.53,13-3.07,25.91" transform="translate(-5.52 -162.25)" />
        <path d="M184.9,501.18c3.8-5,7.69-9.9,11.39-14.95,2.18-3,1-5.9-2.61-7" transform="translate(-5.52 -162.25)" />
        <path d="M270.1,366.79c3.92,1,5.8,3.93,6.93,7.61-2.34,1-4-.15-5.66-1.85-1.47-1.48-2.69-4.28-5.66-2.25" transform="translate(-5.52 -162.25)" />
        <path d="M65.88,412c-1.22,6.78-2.31,13.6-5.66,19.79-.27.51.24,1.43.39,2.17" transform="translate(-5.52 -162.25)" />
        <path d="M188,196a53.17,53.17,0,0,0-4.79,3.12c-.79.62-1.88,2-1.66,2.53.5,1.24,1.83,2.45,3.33,1.72.84-.41,1.07-.19,1.83,0,5.35,1.25,5.37,1.16,7.93-5.57a32.19,32.19,0,0,0,1.73,3c.53.72,1.39,1.62,2.11.42.49-.82.85-2.41.41-3a33.94,33.94,0,0,0-4.44-4c1.85-.94,3.39-.35,5,.39a1.86,1.86,0,0,0,1.67-.44,1.71,1.71,0,0,0,0-1.67c-2-1.92-3.43-4.71-7-4.05a11.85,11.85,0,0,1-3.5-.38" transform="translate(-5.52 -162.25)" />
        <path d="M227.5,349.66c2.42,3.69,4.38,4.35,6.92,1.66,1.24-1.32,2.32-1.15,3.62-1.21a8.45,8.45,0,0,0,2.62-.05c7.3-2.95,10.78,2.59,15,6.63" transform="translate(-5.52 -162.25)" />
        <path d="M269.66,368.11c-1.74-.31-2.53-1.42-3.14-3.05a21.07,21.07,0,0,0-2.57-4c-1.6-2.35-3.14-4.74-4.87-7-.67-.88-2.37,0-2,.28,2.81,2.36-2,2.87-1,4.51,1.23,2,2.6,3.83,3.94,5.72.23.33.55.79.88.83a1.69,1.69,0,0,0,1.27-.42c.3-.29.59-1,.43-1.26-1.39-2.09-2.88-4.12-4.35-6.17" transform="translate(-5.52 -162.25)" />
        <path d="M95.3,196.39c2,2.94,3.8,6.22,8.35,5.29,2-.41.91,1.42,1.35,2.15,1.2,2,.7,6.28,5.26,4,.76-.37,1.63-.25,1.83,1.26.25,2,2.16,2.33,3.86,2.65" transform="translate(-5.52 -162.25)" />
        <path d="M220.91,380.84c1.43,3-1.09,6.19.78,9.29.95,1.57.86,3.78,1.25,5.76,6.8-3.89,2.6-8.74,1.49-13.29" transform="translate(-5.52 -162.25)" />
        <path d="M267.47,266.66c-3.08-2.2-6.26-4.27-9.15-6.68-.7-.59-2.41-2-.9-3.37.87-.8,1.32-2.07,3.51-1.59,3.31.74,5.86,1.65,7,5" transform="translate(-5.52 -162.25)" />
        <path d="M35.57,244.7c0,2.63,0,5.27,0,7.9s.42,5.73-4,3.61c-.25-.12-1.13,1.08-1.72,1.66" transform="translate(-5.52 -162.25)" />
        <path d="M216.52,356.25c.29,2.64.55,5.28.89,7.9.4,3.08.87,6.15,1.31,9.23" transform="translate(-5.52 -162.25)" />
        <path d="M256.49,296.08c-1.75.75-3.83.31-2.51,4.06,1.38,3.91.31,8.68.31,13.07" transform="translate(-5.52 -162.25)" />
        <path d="M79.49,371.18q-1.32,8.35-2.63,16.69" transform="translate(-5.52 -162.25)" />
        <path d="M73.34,403.68c-.58,4.1-.93,8.26-1.88,12.27-.34,1.48-1.43,1-2.61-.32-2.52-2.76-2.82-6-2.94-9.31a22.35,22.35,0,0,1,.41-3.52" transform="translate(-5.52 -162.25)" />
        <path d="M54.46,398c.75-7.45,1.49-14.9,2.31-23.07-4.24,2.86-1.82,7-3.53,10-.84,1.44-.68,3.46-1,5.22-.26,1.57.83,1.33,1.76,1.32" transform="translate(-5.52 -162.25)" />
        <path d="M244.63,305.3,246,320.68" transform="translate(-5.52 -162.25)" />
        <path d="M82.13,366.79q-.22,7-.44,14" transform="translate(-5.52 -162.25)" />
        <path d="M81.25,330.78q.23,6.81.44,13.61" transform="translate(-5.52 -162.25)" />
        <path d="M117.26,466.93l3.56-4.84c-4.23.32-4.23.32-4.43,6.59" transform="translate(-5.52 -162.25)" />
        <path d="M22.84,242.5c2.25,1,4,2,3.74,5.29-.13,1.49-1.08,4.79,2.4,5.32a4.21,4.21,0,0,1,0,1.62c-3.65.86-1.62,3.81-2.18,5.78" transform="translate(-5.52 -162.25)" />
        <path d="M55.34,178.38c2.57,5.11.26,9.05-3.08,12.73" transform="translate(-5.52 -162.25)" />
        <path d="M226.18,373.82a57.35,57.35,0,0,1,2.53,7.92c.28,1.6-1.11,2.71-3,2.62" transform="translate(-5.52 -162.25)" />
        <path d="M223.11,356.69l1.32,11.86" transform="translate(-5.52 -162.25)" />
        <path d="M82.57,340.88q-.22,5.49-.44,11" transform="translate(-5.52 -162.25)" />
        <path d="M78.18,312.33c2-2.38,1.11-7.09-1.76-9.22" transform="translate(-5.52 -162.25)" />
        <path d="M155.91,218.34c-1.86-2.36.46-6.81-5-8.14,1.81,2-.11,4.84,3.24,5.51" transform="translate(-5.52 -162.25)" />
        <path d="M275.37,408.07c-3,2.82-6.77,2.8-10.54,2.64" transform="translate(-5.52 -162.25)" />
        <path d="M265.71,278.07c-2.81-3.46-6.41-1.11-9.66-1.31" transform="translate(-5.52 -162.25)" />
        <path d="M250.34,333c-.24,3.76,1.55,6.89,3.07,10.1" transform="translate(-5.52 -162.25)" />
        <path d="M169.09,480.1c-2.7,3.74-2.49,4.7,1.31,6.15.74.28,1.47.59,2.2.88" transform="translate(-5.52 -162.25)" />
        <path d="M7.47,264.46c-.94,4.39,1.81,6.18,5.27,7.47" transform="translate(-5.52 -162.25)" />
        <path d="M96.18,224.49c-4.57.29-7.06,3.18-8.78,7" transform="translate(-5.52 -162.25)" />
        <path d="M192.36,247.77l8.35,11" transform="translate(-5.52 -162.25)" />
        <path d="M110.24,224.49l-8.79,5.27" transform="translate(-5.52 -162.25)" />
        <path d="M74.66,376c-2,2.93,1.63,5.86,0,8.79" transform="translate(-5.52 -162.25)" />
        <path d="M87.4,210.44c-.29,2.93-.59,5.86-.88,8.78" transform="translate(-5.52 -162.25)" />
        <path d="M6.59,260.51c-.67,3.57,3.52,3.57,4.51,6.1.58,1.51,2.91,2.21,2.51,4.44" transform="translate(-5.52 -162.25)" />
        <path d="M53.58,192c2.61,1.88,3.8,4.26,2.64,7.47" transform="translate(-5.52 -162.25)" />
        <path d="M191.93,479.22c-3.23-.16-5.66,1.49-7.91,3.52" transform="translate(-5.52 -162.25)" />
        <path d="M247.26,382.6a5.56,5.56,0,0,1-.84-1.76c-.14-1.8.22-4.65-2.18-4.16-2.22.46-6.24-.22-6.2,4.16" transform="translate(-5.52 -162.25)" />
        <path d="M222.23,383.92l3.51,7.9" transform="translate(-5.52 -162.25)" />
        <path d="M246.39,383.48c-5.68-5.23-7.26-4.89-12.3,2.63" transform="translate(-5.52 -162.25)" />
        <path d="M26.35,243.82l7.91.44" transform="translate(-5.52 -162.25)" />
        <path d="M95.74,228.45l-7.46,4" transform="translate(-5.52 -162.25)" />
        <path d="M97.94,238.55l-9.66,7.9" transform="translate(-5.52 -162.25)" />
        <path d="M95.74,253.48c.44,0,1,.15,1.3,0a13,13,0,0,0,1.78-1.29,6.38,6.38,0,0,0-2.19-.37c-.5.09-.89.81-1.33,1.25" transform="translate(-5.52 -162.25)" />
        <path d="M84.76,180.57v7" transform="translate(-5.52 -162.25)" />
        <path d="M157.23,211.32c-1.89-1.64-3.44-4.13-6.59-2.64" transform="translate(-5.52 -162.25)" />
        <path d="M256.05,384.36c3.15-.6,2.82-4.15,4.92-5.69-3.45-.14-3.8,3.32-5.8,4.81" transform="translate(-5.52 -162.25)" />
        <path d="M264.83,279l-6.59-1.31" transform="translate(-5.52 -162.25)" />
        <path d="M28.55,241.18l-6.15-1.75" transform="translate(-5.52 -162.25)" />
        <path d="M98.82,231.52,92.67,235" transform="translate(-5.52 -162.25)" />
        <path d="M230.14,429.59c-1,2.79-2,5.57-3.08,8.35" transform="translate(-5.52 -162.25)" />
        <path d="M121.22,430.91l-2.2.88c.15.29.31.85.44.84a4.45,4.45,0,0,0,2.16-.45,10.49,10.49,0,0,0,1.79-2.15" transform="translate(-5.52 -162.25)" />
        <path d="M219.59,371.62c-.14,1.9-.29,3.81-.43,5.71" transform="translate(-5.52 -162.25)" />
        <path d="M220,351c3.18,1.77,1.91,4.85,2.2,7.47" transform="translate(-5.52 -162.25)" />
        <path d="M152,215.71c-.64.63-1.42,1.15-.46,2.21,1.53,1.7,2.95,3.5,4.41,5.26" transform="translate(-5.52 -162.25)" />
        <path d="M21.52,272.8c-2.64-1.35-5.89,1.18-8.34-1.31" transform="translate(-5.52 -162.25)" />
        <path d="M69,397.53v5.27" transform="translate(-5.52 -162.25)" />
        <path d="M246.82,319.8v5.27" transform="translate(-5.52 -162.25)" />
        <path d="M83.89,359.76Q83.44,362.4,83,365" transform="translate(-5.52 -162.25)" />
        <path d="M218.28,225.37l-7,1.76" transform="translate(-5.52 -162.25)" />
        <path d="M51,192.43c.37,1.34-1,3.27,1.31,4" transform="translate(-5.52 -162.25)" />
        <path d="M75.54,370.74V376" transform="translate(-5.52 -162.25)" />
        <path d="M81.25,188.48c0,1.63,1.67,3.1.44,4.83" transform="translate(-5.52 -162.25)" />
        <path d="M76.86,371.62c-.15,1.47-.28,2.93-.46,4.39,0,.16-.27.3-.42.44l-.44-.44" transform="translate(-5.52 -162.25)" />
        <path d="M126.05,256.11l-4.6-2.57c3.6-1,3.6-1,5,2.14" transform="translate(-5.52 -162.25)" />
        <path d="M264.39,257.43c-.89,2.94,1.81,2.29,3.08,3.08" transform="translate(-5.52 -162.25)" />
        <path d="M144.49,236.79l4,5.71" transform="translate(-5.52 -162.25)" />
        <path d="M248.58,326.82v4.4" transform="translate(-5.52 -162.25)" />
        <path d="M110.24,227.13l-4.4,3.51" transform="translate(-5.52 -162.25)" />
        <path d="M247.7,324.19v4.39" transform="translate(-5.52 -162.25)" />
        <path d="M127.8,257.43l2.64,4" transform="translate(-5.52 -162.25)" />
        <path d="M37.77,259.19h-2.2L36,261" transform="translate(-5.52 -162.25)" />
        <path d="M150.2,244.26c2.91,1.46-.06,2.08-.44,3.07" transform="translate(-5.52 -162.25)" />
        <path d="M40.84,253.48c1.31,2,4.52,2.33,4.84,5.27" transform="translate(-5.52 -162.25)" />
        <path d="M75.1,172.67l3.51,8.78" transform="translate(-5.52 -162.25)" />
        <path d="M76,176.62c.15,1.15-.59,2.68,1.32,3.08" transform="translate(-5.52 -162.25)" />
        <path d="M249.46,330.34v3.51" transform="translate(-5.52 -162.25)" />
        <path d="M107.6,233.28l-3.51,3.51" transform="translate(-5.52 -162.25)" />
        <path d="M144.05,418.18c1-.84.15-1.18-.44-1.24-.25,0-.58.8-.87,1.24q1.63,1.1,0,2.19" transform="translate(-5.52 -162.25)" />
        <path d="M86.52,236.79l-3.51.88" transform="translate(-5.52 -162.25)" />
        <path d="M76,376.89l-.44,3.52" transform="translate(-5.52 -162.25)" />
        <path d="M94.43,225.37c-.1,1.86,1.56,1.95,2.63,2.64" transform="translate(-5.52 -162.25)" />
        <path d="M41.72,260.51c-1-1.57-2.37-.06-3.51-.44" transform="translate(-5.52 -162.25)" />
        <path d="M49.63,400.17l-.88,3.51" transform="translate(-5.52 -162.25)" />
        <path d="M27.67,257.87c2.37-1.26,3.23,2,5.27,1.76l-.88.88-.88-.88" transform="translate(-5.52 -162.25)" />
        <path d="M122.53,252.6c-1.17-2-2.34.23-3.51,0" transform="translate(-5.52 -162.25)" />
        <path d="M235,361.52c-2.65.58,1.77,2.93-.88,3.51" transform="translate(-5.52 -162.25)" />
        <path d="M80.81,191.55c-1.32,1.24.24,2.06.44,3.08" transform="translate(-5.52 -162.25)" />
        <path d="M163.82,215.71c-1.78.38-.52,1.78-.88,2.63" transform="translate(-5.52 -162.25)" />
        <path d="M260.44,407.2l3.95,3.95" transform="translate(-5.52 -162.25)" />
        <path d="M78.18,310.14l-1.32,5.7" transform="translate(-5.52 -162.25)" />
        <path d="M90.91,235.91l-2.63.88" transform="translate(-5.52 -162.25)" />
        <path d="M94.43,231.52l-2.64,1.76" transform="translate(-5.52 -162.25)" />
        <path d="M18,238.55l-2.64.88" transform="translate(-5.52 -162.25)" />
        <path d="M79.93,262.26c.58.26,1.66.23.84,1.29a1.44,1.44,0,0,1-1.22,0,31.65,31.65,0,0,1-.94-3.05" transform="translate(-5.52 -162.25)" />
        <path d="M47.87,405.44,47,408.07" transform="translate(-5.52 -162.25)" />
        <path d="M166.45,223.61l-2.63-2.19" transform="translate(-5.52 -162.25)" />
        <path d="M93.55,236.79l-2.64,1.76" transform="translate(-5.52 -162.25)" />
        <path d="M249.46,384.36v1.32l-1.32-.44" transform="translate(-5.52 -162.25)" />
        <path d="M106.72,251.72l4.39.88" transform="translate(-5.52 -162.25)" />
        <path d="M250.78,387c.83-.37,1.15,1.84,2.19.44" transform="translate(-5.52 -162.25)" />
        <path d="M44.36,257.43l3.51,4" transform="translate(-5.52 -162.25)" />
        <path d="M98.82,423.89c1,.84,1.72,2.42,3.51,1.75" transform="translate(-5.52 -162.25)" />
        <path d="M84.76,242.06l-.87,1.76" transform="translate(-5.52 -162.25)" />
        <path d="M270.1,279c1.26,1.17,1.26,2.35,0,3.48a2.81,2.81,0,0,1-.81-.86c-.08-.2.23-.58.42-.85,0-.07.27,0,.42,0" transform="translate(-5.52 -162.25)" />
        <path d="M81.25,250l-.88,1.75" transform="translate(-5.52 -162.25)" />
        <path d="M236.72,359.76l-1.31,3.08" transform="translate(-5.52 -162.25)" />
        <path d="M178.75,247.33l1.76,1.76" transform="translate(-5.52 -162.25)" />
        <path d="M215.64,194.63c.59-.93,1.17-.93,1.76,0" transform="translate(-5.52 -162.25)" />
        <path d="M97.94,235.91l-1.76,1.76" transform="translate(-5.52 -162.25)" />
        <path d="M55.78,409.83l-.88,1.76" transform="translate(-5.52 -162.25)" />
        <path d="M86.08,233.28,84.76,235" transform="translate(-5.52 -162.25)" />
        <path d="M158.11,224.05c.23.94.06,1.12-.88.88" transform="translate(-5.52 -162.25)" />
        <path d="M137.47,403.68l-1.76.88" transform="translate(-5.52 -162.25)" />
        <path d="M160.74,214l1.76,1.32" transform="translate(-5.52 -162.25)" />
        <path d="M102.33,227.13l-1.76.88" transform="translate(-5.52 -162.25)" />
        <path d="M256.05,459.9c.26,1.6-.15,2.86-1.76,3.51" transform="translate(-5.52 -162.25)" />
        <path d="M257.8,467.8v3.52" transform="translate(-5.52 -162.25)" />
        <path d="M111.11,476.59l-1.75,1.75" transform="translate(-5.52 -162.25)" />
        <path d="M113.75,225.37l-1.76.88" transform="translate(-5.52 -162.25)" />
        <path d="M104.09,231.52l-1.76,1.76" transform="translate(-5.52 -162.25)" />
        <path d="M159,212.64l.87,1.75" transform="translate(-5.52 -162.25)" />
        <path d="M259.56,257.87l.88.88" transform="translate(-5.52 -162.25)" />
        <path d="M122.53,459.9l-1.31,1.32" transform="translate(-5.52 -162.25)" />
        <path d="M127.36,255.68V257l-.87-1.31" transform="translate(-5.52 -162.25)" />
        <path d="M268.78,260.07v1.32l-.87-1.32" transform="translate(-5.52 -162.25)" />
        <path d="M148,243.38l.88,1.32" transform="translate(-5.52 -162.25)" />
        <path d="M149.32,242.5v1.76" transform="translate(-5.52 -162.25)" />
        <path d="M147.13,241.62c.25.58.19,1.61,1.32.88" transform="translate(-5.52 -162.25)" />
        <path d="M253.85,384.8v1.75" transform="translate(-5.52 -162.25)" />
        <path d="M253,385.68c-.23.93-.06,1.11.88.87" transform="translate(-5.52 -162.25)" />
        <path d="M253.85,372.5c2.64.29,3.61,3.6,3.28,4.28-1.14,2.34-3.28,4.21-5,6.26-.13.16-.29.29-.43.44-.86-1.34-3-1.81-2.65-4,.27-1.89-2.65-4.12.47-5.67a17.34,17.34,0,0,1,3.93-.92" transform="translate(-5.52 -162.25)" />
        <path d="M213.89,191.11l-.88,1.32.88.44.43-1.32" transform="translate(-5.52 -162.25)" />
        <path d="M117.7,388.75c-1.16.38-2,1-.83,2.15a1.76,1.76,0,0,0,1.68,0c1.14-.85.23-1.52-.41-2.15" transform="translate(-5.52 -162.25)" />
        <path d="M199.39,421.69l1.32.44c-.15.14-.32.43-.44.41a10.58,10.58,0,0,1-1.32-.41" transform="translate(-5.52 -162.25)" />
    </g>
</svg>